<?xml version="1.0" standalone="no"?>
<!DOCTYPE svg PUBLIC "-//W3C//DTD SVG 20010904//EN"
 "http://www.w3.org/TR/2001/REC-SVG-20010904/DTD/svg10.dtd">
<svg version="1.0" xmlns="http://www.w3.org/2000/svg"
 width="490.000000pt" height="490.000000pt" viewBox="0 0 490.000000 490.000000"
 preserveAspectRatio="xMidYMid meet">

<g transform="translate(0.000000,490.000000) scale(0.100000,-0.100000)"
fill="#000000" stroke="none">
<path d="M2555 3982 c-3 -3 -5 -68 -5 -144 0 -103 3 -138 13 -139 37 -4 57 -9
111 -29 33 -12 80 -32 105 -46 25 -13 49 -24 52 -24 15 0 219 -188 219 -201 0
-4 14 -28 30 -52 17 -25 30 -49 30 -55 0 -6 4 -12 8 -14 14 -5 59 -158 72
-244 11 -66 11 -102 1 -187 -12 -99 -28 -168 -44 -183 -4 -4 -7 -14 -7 -23 0
-9 -7 -29 -16 -46 -9 -16 -23 -42 -31 -57 -8 -16 -19 -28 -25 -28 -6 0 -97 87
-203 193 -105 105 -345 344 -533 529 -188 185 -342 344 -342 352 0 8 10 18 23
22 12 4 24 10 27 13 7 10 76 41 89 41 6 0 19 4 29 9 41 21 69 30 97 33 l30 3
0 135 0 135 -55 -4 c-30 -2 -58 -8 -61 -13 -4 -6 -12 -7 -18 -3 -7 4 -27 1
-44 -5 -71 -27 -87 -35 -87 -42 0 -4 -17 -10 -37 -14 -21 -4 -45 -15 -53 -24
-8 -9 -26 -21 -40 -25 -14 -4 -35 -17 -48 -29 -13 -11 -26 -20 -28 -18 -12 8
-234 -196 -234 -215 0 -5 -9 -18 -20 -28 -11 -10 -20 -22 -20 -27 0 -5 -13
-26 -29 -46 -16 -20 -32 -48 -36 -62 -4 -14 -11 -27 -14 -30 -6 -4 -27 -53
-51 -115 -18 -46 -49 -175 -50 -203 0 -11 28 -13 136 -10 121 3 137 5 150 22
8 11 14 32 14 47 0 15 5 31 10 34 6 3 10 14 10 23 0 9 16 49 36 89 29 56 42
73 58 73 15 0 108 -89 301 -286 154 -158 389 -396 523 -530 133 -134 242 -247
242 -251 -1 -28 -160 -95 -279 -117 -104 -20 -172 -20 -286 -1 -103 18 -100
17 -220 76 -72 35 -108 62 -182 134 -51 49 -93 94 -93 98 0 5 -10 23 -23 40
-39 54 -90 179 -103 250 l-6 37 -144 0 c-143 0 -144 0 -144 -22 0 -30 25 -134
41 -173 7 -17 13 -35 14 -41 3 -11 10 -28 53 -126 10 -21 20 -38 25 -38 4 0 7
-4 7 -9 0 -49 273 -341 319 -341 6 0 11 -4 11 -9 0 -4 21 -19 48 -33 26 -13
56 -30 67 -36 153 -87 461 -137 623 -102 134 30 188 44 197 51 5 5 15 9 21 9
20 0 154 66 204 99 25 17 49 31 55 31 5 0 59 -49 120 -109 l110 -108 213 5
c116 2 212 8 212 12 0 4 -84 91 -187 192 -104 102 -199 199 -211 217 -24 31
-24 32 -5 58 23 33 71 113 79 133 4 8 16 35 27 60 101 228 105 581 8 795 -10
22 -22 50 -25 62 -4 13 -19 43 -34 69 -15 25 -31 53 -37 63 -33 56 -215 251
-235 251 -5 0 -19 10 -30 23 -12 12 -24 22 -28 22 -4 0 -23 12 -42 26 -41 31
-94 59 -111 59 -7 0 -20 6 -28 13 -29 25 -273 92 -286 79z"/>
<path d="M1236 1563 c-3 -16 -8 -38 -12 -50 -6 -21 -3 -23 30 -23 l36 0 0
-220 0 -220 55 0 55 0 0 220 0 220 35 0 c19 0 35 3 35 6 0 3 -5 25 -11 50
l-11 44 -103 0 -102 0 -7 -27z"/>
<path d="M1500 1320 l0 -270 104 0 104 0 7 33 c4 17 9 40 11 50 5 15 -2 17
-55 17 l-61 0 0 60 0 60 45 0 45 0 0 45 0 45 -45 0 -45 0 0 65 0 65 61 0 61 0
-7 43 c-4 23 -9 45 -12 50 -2 4 -51 7 -109 7 l-104 0 0 -270z"/>
<path d="M1790 1563 c-20 -26 -21 -35 -18 -251 3 -221 3 -224 27 -243 18 -15
39 -19 101 -19 l78 0 7 33 c4 17 9 40 11 49 4 14 -4 17 -53 20 l-58 3 0 165 0
165 58 3 c49 3 57 6 53 20 -2 9 -7 32 -11 50 l-7 32 -83 0 c-79 0 -85 -2 -105
-27z"/>
<path d="M2040 1320 l0 -270 55 0 55 0 0 110 0 110 30 0 30 0 0 -110 0 -110
55 0 55 0 0 270 0 270 -55 0 -55 0 0 -115 0 -115 -30 0 -30 0 0 115 0 115 -55
0 -55 0 0 -270z"/>
<path d="M2385 1565 c-25 -24 -25 -24 -25 -237 0 -242 4 -257 63 -271 27 -7
37 -14 37 -28 0 -16 7 -19 45 -19 38 0 45 3 45 20 0 13 9 22 28 26 15 3 33 7
40 10 27 8 33 61 30 272 -4 262 2 252 -145 252 -86 0 -96 -2 -118 -25z m153
-242 l2 -173 -35 0 -35 0 0 168 c0 93 3 172 7 176 4 4 19 6 33 4 l25 -3 3
-172z"/>
<path d="M2692 1339 c4 -305 -4 -289 144 -289 141 0 134 -16 134 290 l0 250
-55 0 -55 0 -2 -222 -3 -223 -25 0 -25 0 -3 223 -2 222 -56 0 -55 0 3 -251z"/>
<path d="M3020 1320 l0 -270 104 0 104 0 7 33 c4 17 9 40 11 50 5 15 -2 17
-55 17 l-61 0 0 60 0 60 45 0 45 0 0 45 0 45 -45 0 -45 0 0 65 0 65 61 0 61 0
-7 43 c-4 23 -9 45 -12 50 -2 4 -51 7 -109 7 l-104 0 0 -270z"/>
<path d="M3315 1565 c-24 -23 -25 -30 -25 -138 0 -75 4 -119 13 -130 8 -11 30
-17 67 -19 l55 -3 3 -62 3 -63 -66 0 c-64 0 -65 0 -60 -25 3 -14 7 -36 10 -50
5 -24 8 -25 89 -25 123 0 130 7 134 147 2 59 -1 120 -7 135 -9 24 -16 27 -68
30 l-58 3 -3 63 -3 62 67 0 67 0 -7 38 c-3 20 -6 43 -6 50 0 9 -25 12 -90 12
-83 0 -93 -2 -115 -25z"/>
<path d="M3576 1563 c-3 -16 -8 -38 -12 -50 -6 -21 -3 -23 30 -23 l36 0 0
-220 0 -220 55 0 55 0 0 220 0 220 35 0 c19 0 35 3 35 6 0 3 -5 25 -11 50
l-11 44 -103 0 -102 0 -7 -27z"/>
</g>
</svg>
